<?xml version="1.0" standalone="no"?>
<!DOCTYPE svg PUBLIC "-//W3C//DTD SVG 20010904//EN"
 "http://www.w3.org/TR/2001/REC-SVG-20010904/DTD/svg10.dtd">
<svg version="1.0" xmlns="http://www.w3.org/2000/svg"
 width="300.000000pt" height="300.000000pt" viewBox="0 0 300.000000 300.000000"
 preserveAspectRatio="xMidYMid meet">
<metadata>
Created by potrace 1.11, written by Peter Selinger 2001-2013
</metadata>
<g transform="translate(0.000000,300.000000) scale(0.100000,-0.100000)"
fill="#000000" stroke="none">
<path d="M139 2375 c-1 0 -3 -388 -4 -863 l-2 -862 226 2 226 3 0 165 1 166
126 147 127 146 123 -147 123 -147 1 -160 c1 -88 2 -163 3 -167 0 -5 93 -8
206 -8 l205 0 0 236 0 237 -42 46 c-24 26 -65 73 -93 106 -27 32 -55 63 -60
69 -6 6 -55 62 -108 125 -87 100 -97 115 -84 130 29 35 342 397 352 407 7 7
78 11 215 10 l204 -1 0 -682 0 -683 223 0 c123 0 223 3 224 8 0 4 2 308 4 677
1 369 3 673 4 677 0 4 83 8 184 7 100 0 224 0 274 1 l93 0 -1 175 c0 96 -4
176 -7 176 -4 1 -378 3 -832 4 l-824 2 -21 -21 c-23 -24 -104 -118 -191 -221
-32 -38 -68 -81 -81 -95 -40 -46 -65 -75 -101 -119 -21 -24 -44 -51 -53 -60
-8 -9 -55 -62 -104 -118 -48 -57 -89 -103 -90 -103 0 0 -1 159 0 353 0 193 -1
359 -3 367 -3 13 -34 16 -223 15 -120 0 -220 0 -220 0z"/>
<path d="M820 980 l-65 -5 0 -160 0 -160 83 -3 82 -3 0 164 c0 188 8 175 -100
167z"/>
</g>
</svg>
